<svg version="1" xmlns="http://www.w3.org/2000/svg" width="362.667" height="362.667" viewBox="0 0 272.000000 272.000000"><path d="M124.4 1c-.6.6-4.9 1.5-9.5 2C100.2 4.5 88.2 8.3 72 16.4c-5.2 2.6-10.8 6-12.5 7.6-1.6 1.5-5.7 4.5-9 6.8-6.8 4.6-15.5 13.4-20.4 20.7-1.9 2.7-4.7 6.3-6.2 8C20.8 62.9 8 88.3 8 91.1c0 1-.4 2-.8 2.3-1 .6-2.9 10.7-4.1 22.1-.5 4.4-1.4 8.1-2 8.3-1.4.5-1.5 22.8-.2 23.7.5.3 1.2 3.1 1.6 6.3.9 9.4 3.8 24.2 4.7 24.8.4.3.8 1.4.8 2.5 0 1 .4 2.7.9 3.7.6.9 3.5 6.9 6.6 13.1 3.1 6.3 6.9 13 8.5 14.8 1.6 1.8 4.7 5.8 6.8 9 5 7.2 13.8 15.8 21.7 21.1 3.4 2.2 6.7 4.8 7.5 5.7 1.7 2.1 19.3 11 28 14.2 10.5 3.9 16.6 5.3 25.6 6 5 .3 9.1 1.2 9.9 2 1.7 1.6 21.5 1.9 23.1.3.6-.6 5.6-1.5 11-2.1 5.4-.5 12.2-1.6 14.9-2.4 13.2-3.7 34.3-13.4 40.2-18.6 1.8-1.5 5.8-4.6 9-6.7 6.8-4.7 15.7-13.7 20.3-20.5 1.8-2.7 4.5-6.3 6-8 3.5-4 13.5-23.8 16.8-33.2 1.8-5.1 4-16.6 4.7-24.8.4-4.2 1.1-8 1.6-8.3.5-.3.9-5.6.9-11.9 0-8.6-.3-11.4-1.4-11.8-.9-.4-1.5-3.2-1.8-8.9-.3-4.5-1.6-12.1-2.9-16.8-2.4-9-14.4-34.5-17.4-37-.9-.8-3.5-4.1-5.7-7.5-5.4-8-14-16.8-21.3-21.7-3.3-2.3-7.3-5.3-9-6.8-9.3-8.6-42.8-21-56.7-21-2.4 0-5.6-.7-7.2-1.5C145.2-.3 126-.6 124.4 1zm33.1 9.7c60.3 9.4 105.7 63.2 105.8 125.3 0 14.5-1.6 24.7-5.9 38-4.9 15.5-11.2 27.4-21.5 41-16.7 22-45 39.6-73 45.5-28 5.9-56.2 2.6-81.8-9.5-17.3-8.3-32.4-20.2-43.7-34.7-8.8-11-12.3-16.6-17.2-27.3-17.1-36.8-15-80.7 5.5-116.4 18.8-32.9 52.7-56.5 89.1-62.1 17.5-2.7 24.8-2.6 42.7.2z"/><path d="M135.7 91.9l.5 16.8-7.7.7c-9.6.9-17.5 3.3-26.1 8.1-8.4 4.7-13 8.9-19.3 17.3-8.4 11.4-12.2 20.6-15.5 37.2-2.6 12.9-2.8 15.6-1.6 20.1 1.1 3.9 1.3 4.2 2.5 2.6.7-1 1.5-3.6 1.9-5.8 1.7-10.9 13.6-26.7 24.9-33.3 10.9-6.3 35.9-12.2 39.5-9.3.9.7 1.1 4.8.7 17.3-.7 18-.6 18.3 4.9 13.8 4.4-3.5 18.4-14.2 24.1-18.4 4.5-3.3 8.1-5.9 24.6-18.3 14.7-10.9 17-12.8 16.7-13.6-.2-.5-8.8-7.3-19.3-15.1l-24-18c-2.7-2.1-9-6.9-14-10.6-4.9-3.7-9.1-7.1-9.3-7.6-.2-.4-1.2-.8-2.2-.8-1.8 0-1.8.9-1.3 16.9z"/></svg>